<svg xmlns="http://www.w3.org/2000/svg" xmlns:xlink="http://www.w3.org/1999/xlink" width="500" zoomAndPan="magnify" viewBox="0 0 375 374.999991" height="500" preserveAspectRatio="xMidYMid meet" version="1.0"><defs><g/><clipPath id="47a7361e2a"><path d="M 268 152.71875 L 277 152.71875 L 277 166 L 268 166 Z M 268 152.71875 " clip-rule="nonzero"/></clipPath><clipPath id="03d186d5df"><path d="M 268 205 L 277 205 L 277 217.890625 L 268 217.890625 Z M 268 205 " clip-rule="nonzero"/></clipPath><clipPath id="387e83eb82"><path d="M 239.800781 179 L 248 179 L 248 192 L 239.800781 192 Z M 239.800781 179 " clip-rule="nonzero"/></clipPath><clipPath id="d20f0acfe6"><path d="M 296 179 L 304.972656 179 L 304.972656 192 L 296 192 Z M 296 179 " clip-rule="nonzero"/></clipPath></defs><path fill="#003b64" d="M 268.238281 185.480469 C 268.238281 181.566406 268.234375 177.652344 268.238281 173.738281 C 268.238281 171.382812 270.050781 169.546875 272.351562 169.558594 C 274.621094 169.574219 276.40625 171.40625 276.410156 173.734375 C 276.410156 181.558594 276.410156 189.390625 276.410156 197.21875 C 276.410156 199.570312 274.59375 201.40625 272.292969 201.394531 C 270.023438 201.382812 268.238281 199.546875 268.238281 197.222656 C 268.234375 193.308594 268.238281 189.394531 268.238281 185.480469 Z M 268.238281 185.480469 " fill-opacity="1" fill-rule="nonzero"/><path fill="#003b64" d="M 261.984375 177.164062 C 261.984375 179.585938 262.003906 182.003906 261.976562 184.421875 C 261.953125 186.4375 260.589844 188.019531 258.625 188.390625 C 256.769531 188.738281 254.886719 187.710938 254.144531 185.9375 C 253.929688 185.421875 253.828125 184.878906 253.828125 184.3125 C 253.832031 179.5625 253.824219 174.8125 253.832031 170.0625 C 253.835938 167.6875 255.636719 165.855469 257.933594 165.859375 C 260.195312 165.867188 261.964844 167.675781 261.980469 170.039062 C 261.996094 172.414062 261.984375 174.789062 261.984375 177.164062 Z M 261.984375 177.164062 " fill-opacity="1" fill-rule="nonzero"/><path fill="#003b64" d="M 290.816406 193.796875 C 290.816406 196.214844 290.832031 198.632812 290.8125 201.050781 C 290.796875 203.144531 289.28125 204.773438 287.132812 205.070312 C 285.253906 205.328125 283.339844 204.015625 282.808594 202.089844 C 282.71875 201.765625 282.667969 201.417969 282.667969 201.078125 C 282.660156 196.222656 282.644531 191.363281 282.671875 186.507812 C 282.683594 184.519531 284.050781 182.953125 285.984375 182.570312 C 287.835938 182.207031 289.734375 183.222656 290.484375 184.988281 C 290.714844 185.523438 290.820312 186.085938 290.816406 186.671875 C 290.8125 189.046875 290.816406 191.421875 290.816406 193.796875 Z M 290.816406 193.796875 " fill-opacity="1" fill-rule="nonzero"/><path fill="#003b64" d="M 290.816406 172.371094 C 290.75 173.214844 290.933594 174.246094 290.714844 175.261719 C 290.292969 177.214844 288.53125 178.578125 286.570312 178.46875 C 284.503906 178.355469 282.867188 176.890625 282.703125 174.875 C 282.558594 173.109375 282.5625 171.328125 282.695312 169.558594 C 282.855469 167.386719 284.753906 165.769531 286.863281 165.859375 C 289.074219 165.957031 290.789062 167.726562 290.816406 169.949219 C 290.824219 170.699219 290.816406 171.449219 290.816406 172.371094 Z M 290.816406 172.371094 " fill-opacity="1" fill-rule="nonzero"/><path fill="#003b64" d="M 253.832031 198.558594 C 253.890625 197.75 253.714844 196.722656 253.929688 195.703125 C 254.332031 193.78125 256.070312 192.40625 258 192.476562 C 260.074219 192.550781 261.78125 194.042969 261.941406 196.066406 C 262.082031 197.878906 262.089844 199.703125 261.9375 201.511719 C 261.761719 203.589844 259.855469 205.179688 257.789062 205.09375 C 255.65625 205.007812 253.917969 203.3125 253.835938 201.210938 C 253.804688 200.398438 253.832031 199.585938 253.832031 198.558594 Z M 253.832031 198.558594 " fill-opacity="1" fill-rule="nonzero"/><g clip-path="url(#47a7361e2a)"><path fill="#003b64" d="M 268.238281 159.039062 C 268.296875 158.222656 268.121094 157.210938 268.324219 156.21875 C 268.765625 154.074219 270.65625 152.738281 272.871094 152.984375 C 274.871094 153.207031 276.402344 154.96875 276.410156 157.054688 C 276.414062 158.53125 276.414062 160.007812 276.410156 161.484375 C 276.398438 163.75 274.582031 165.542969 272.316406 165.542969 C 270.050781 165.539062 268.246094 163.738281 268.238281 161.472656 C 268.234375 160.722656 268.238281 159.972656 268.238281 159.042969 Z M 268.238281 159.039062 " fill-opacity="1" fill-rule="nonzero"/></g><g clip-path="url(#03d186d5df)"><path fill="#003b64" d="M 268.238281 211.675781 C 268.238281 210.972656 268.238281 210.265625 268.238281 209.558594 C 268.242188 207.226562 270.015625 205.421875 272.308594 205.414062 C 274.605469 205.410156 276.402344 207.214844 276.410156 209.53125 C 276.410156 211.007812 276.414062 212.480469 276.410156 213.957031 C 276.398438 216.226562 274.59375 217.996094 272.304688 217.992188 C 270.054688 217.988281 268.257812 216.21875 268.238281 213.988281 C 268.230469 213.21875 268.238281 212.449219 268.238281 211.675781 Z M 268.238281 211.675781 " fill-opacity="1" fill-rule="nonzero"/></g><g clip-path="url(#387e83eb82)"><path fill="#003b64" d="M 247.9375 185.492188 C 247.9375 186.238281 247.9375 186.988281 247.9375 187.734375 C 247.921875 190.007812 246.128906 191.777344 243.84375 191.769531 C 241.601562 191.765625 239.820312 189.988281 239.808594 187.742188 C 239.804688 186.222656 239.800781 184.707031 239.808594 183.191406 C 239.824219 180.949219 241.617188 179.1875 243.871094 179.1875 C 246.117188 179.1875 247.917969 180.957031 247.933594 183.183594 C 247.941406 183.953125 247.933594 184.722656 247.933594 185.492188 Z M 247.9375 185.492188 " fill-opacity="1" fill-rule="nonzero"/></g><g clip-path="url(#d20f0acfe6)"><path fill="#003b64" d="M 304.835938 185.523438 C 304.835938 186.292969 304.84375 187.0625 304.835938 187.828125 C 304.8125 190.015625 303.007812 191.765625 300.777344 191.769531 C 298.558594 191.769531 296.734375 190.011719 296.714844 187.835938 C 296.703125 186.253906 296.703125 184.671875 296.714844 183.09375 C 296.738281 180.949219 298.558594 179.191406 300.738281 179.183594 C 302.976562 179.179688 304.800781 180.914062 304.832031 183.085938 C 304.84375 183.898438 304.835938 184.707031 304.835938 185.519531 Z M 304.835938 185.523438 " fill-opacity="1" fill-rule="nonzero"/></g><g fill="#003b64" fill-opacity="1"><g transform="translate(79.644396, 207.144345)"><g><path d="M 37.710938 -38.902344 C 39.296875 -39.5625 39.363281 -42.070312 37.84375 -42.929688 C 37.710938 -43.0625 37.578125 -43.128906 37.449219 -43.195312 C 37.578125 -43.257812 37.777344 -43.257812 37.910156 -43.257812 C 38.570312 -43.390625 38.371094 -44.515625 37.777344 -44.449219 C 36.789062 -44.316406 35.796875 -44.25 34.804688 -44.117188 C 34.410156 -44.183594 34.011719 -44.117188 33.683594 -44.117188 C 33.023438 -44.050781 32.363281 -43.984375 31.636719 -43.855469 C 22.457031 -43.0625 13.210938 -42.863281 3.960938 -43.390625 C 3.765625 -43.457031 3.699219 -43.0625 3.898438 -43.0625 C 7.464844 -42.46875 11.03125 -42.070312 14.597656 -41.871094 C 14.597656 -41.808594 14.53125 -41.742188 14.53125 -41.675781 C 10.898438 -41.675781 7.332031 -41.9375 3.699219 -42.269531 C 2.246094 -42.402344 0.925781 -41.144531 0.527344 -39.824219 C 0.132812 -38.242188 0.925781 -36.65625 2.246094 -35.929688 C 2.640625 -34.871094 3.5 -33.949219 4.359375 -33.351562 C 5.546875 -32.625 7 -32.429688 8.386719 -32.230469 C 10.105469 -32.097656 11.886719 -32.03125 13.671875 -32.03125 C 14.53125 -32.03125 15.386719 -32.03125 16.246094 -32.03125 L 16.246094 -29.917969 L 16.113281 -27.011719 C 15.984375 -23.578125 15.785156 -20.144531 15.585938 -16.777344 C 15.453125 -13.40625 15.386719 -9.972656 15.585938 -6.605469 C 15.71875 -4.027344 16.3125 -0.992188 19.085938 -0.132812 C 20.472656 0.265625 22.125 -0.527344 22.585938 -1.980469 C 23.050781 -3.300781 23.117188 -5.152344 23.378906 -6.339844 L 23.378906 -3.832031 C 23.3125 -2.90625 23.3125 -1.980469 23.246094 -1.058594 L 23.246094 -0.925781 C 24.4375 -1.847656 24.699219 -3.433594 24.832031 -5.019531 C 24.765625 -7.332031 24.636719 -9.644531 24.570312 -11.953125 C 24.570312 -15.984375 24.503906 -20.011719 24.503906 -24.039062 C 24.503906 -26.945312 24.570312 -29.851562 24.570312 -32.757812 C 27.9375 -33.222656 31.238281 -33.816406 34.609375 -34.476562 C 34.804688 -34.476562 34.9375 -34.609375 35.070312 -34.738281 C 35.398438 -34.804688 35.796875 -34.9375 36.0625 -35.136719 C 37.117188 -35.863281 37.382812 -37.050781 37.449219 -38.242188 C 37.578125 -38.4375 37.644531 -38.636719 37.710938 -38.902344 Z M 8.386719 -33.816406 C 6.800781 -33.882812 5.085938 -34.34375 4.027344 -35.335938 C 6.605469 -34.542969 9.246094 -34.078125 11.886719 -33.816406 C 10.699219 -33.75 9.511719 -33.75 8.386719 -33.816406 Z M 8.386719 -33.816406 "/></g></g></g><g fill="#003b64" fill-opacity="1"><g transform="translate(117.087747, 207.144345)"><g><path d="M 33.75 -20.738281 C 35.398438 -22.519531 35.136719 -25.957031 32.558594 -26.8125 C 31.964844 -26.945312 31.4375 -27.144531 30.910156 -27.210938 L 30.910156 -28.664062 C 30.976562 -30.25 30.976562 -31.832031 30.910156 -33.351562 C 30.910156 -33.550781 30.976562 -33.75 30.910156 -33.949219 C 30.777344 -36.257812 31.042969 -39.164062 29.785156 -41.210938 C 28.464844 -43.457031 25.691406 -43.523438 23.710938 -42.203125 C 21.464844 -40.683594 21.859375 -38.042969 22.257812 -35.730469 C 22.390625 -33.023438 22.585938 -30.25 22.71875 -27.539062 C 21.992188 -27.476562 21.332031 -27.34375 20.605469 -27.277344 C 18.292969 -27.078125 15.984375 -26.878906 13.671875 -26.550781 L 13.539062 -26.550781 C 13.339844 -29.523438 13.144531 -32.558594 12.945312 -35.597656 L 12.746094 -38.769531 C 12.679688 -39.363281 12.417969 -40.617188 11.757812 -40.882812 C 11.492188 -41.015625 11.292969 -41.082031 11.03125 -41.082031 L 11.03125 -41.210938 C 10.964844 -42.730469 9.3125 -43.789062 7.925781 -43.589844 C 6.472656 -43.390625 5.351562 -42.003906 5.546875 -40.484375 C 6.207031 -35.464844 6.339844 -30.316406 6.40625 -25.230469 L 6.273438 -25.230469 C 6.207031 -25.230469 6.140625 -25.097656 6.078125 -25.03125 C 5.878906 -27.476562 5.613281 -30.050781 5.351562 -32.496094 C 5.019531 -35.730469 4.820312 -39.03125 4.160156 -42.203125 C 4.160156 -42.335938 3.960938 -42.335938 3.960938 -42.203125 C 3.832031 -39.097656 4.09375 -35.929688 4.160156 -32.824219 C 4.292969 -30.117188 4.359375 -27.410156 4.425781 -24.765625 C 3.433594 -24.4375 2.574219 -23.910156 2.046875 -23.050781 C 1.652344 -22.71875 1.253906 -22.324219 0.992188 -21.925781 C -0.59375 -19.746094 1.71875 -17.039062 3.960938 -17.964844 L 4.625 -18.230469 C 4.820312 -13.339844 4.886719 -8.386719 5.285156 -3.5 C 5.285156 -3.039062 5.746094 -2.773438 6.140625 -2.773438 C 6.273438 -2.445312 6.40625 -2.113281 6.605469 -1.785156 C 7.859375 0.527344 10.304688 0.265625 11.953125 -1.453125 C 12.746094 -2.3125 12.945312 -3.832031 13.078125 -4.953125 C 13.144531 -5.480469 13.144531 -6.078125 13.210938 -6.605469 L 13.210938 -6.800781 C 13.605469 -8.917969 13.539062 -11.160156 13.539062 -13.339844 C 13.539062 -15.257812 13.472656 -17.171875 13.40625 -19.085938 C 15.917969 -19.21875 18.492188 -19.285156 21.003906 -19.285156 C 21.464844 -19.285156 21.859375 -19.285156 22.324219 -19.285156 L 22.324219 -16.839844 C 22.324219 -14.332031 22.390625 -11.757812 22.519531 -9.246094 C 22.585938 -6.671875 22.71875 -4.160156 22.917969 -1.585938 C 22.984375 -0.726562 23.117188 0.394531 23.710938 1.058594 C 24.4375 1.980469 25.625 2.378906 26.8125 1.652344 C 27.144531 1.453125 27.476562 1.1875 27.671875 0.925781 C 27.738281 0.925781 27.738281 0.925781 27.738281 0.859375 C 29.125 0.0664062 29.390625 -2.179688 29.589844 -3.632812 C 29.785156 -5.21875 29.917969 -6.800781 30.050781 -8.453125 C 30.25 -11.691406 30.445312 -14.992188 30.578125 -18.230469 C 32.03125 -18.03125 33.550781 -18.953125 33.75 -20.539062 Z M 15.785156 -21.070312 C 17.964844 -21.199219 20.144531 -21.132812 22.324219 -21.070312 L 22.324219 -20.738281 C 21.925781 -20.738281 21.464844 -20.738281 21.003906 -20.804688 C 18.492188 -20.804688 15.917969 -20.671875 13.339844 -20.40625 L 13.339844 -20.671875 C 13.472656 -20.738281 13.539062 -20.871094 13.605469 -21.003906 C 14.332031 -21.003906 15.058594 -21.070312 15.785156 -21.070312 Z M 15.785156 -21.070312 "/></g></g></g><g fill="#003b64" fill-opacity="1"><g transform="translate(151.295245, 207.144345)"><g><path d="M 0.925781 -38.109375 C 1.058594 -37.449219 1.980469 -36.917969 2.574219 -36.722656 C 3.566406 -36.324219 4.558594 -36.191406 5.613281 -36.191406 C 6.867188 -36.191406 8.320312 -36.523438 9.113281 -37.449219 C 10.367188 -37.710938 11.625 -38.304688 12.613281 -39.03125 C 13.144531 -39.429688 13.605469 -40.089844 13.339844 -40.816406 C 12.679688 -42.535156 11.359375 -43.523438 9.578125 -43.984375 C 7.527344 -44.515625 5.480469 -43.722656 3.765625 -42.535156 C 3.632812 -42.46875 3.5 -42.335938 3.367188 -42.203125 C 2.707031 -41.742188 2.179688 -41.210938 1.71875 -40.550781 C 1.253906 -39.890625 0.660156 -38.964844 0.925781 -38.109375 Z M 5.351562 -36.523438 C 4.558594 -36.589844 3.832031 -36.722656 3.105469 -36.984375 C 2.640625 -37.117188 2.246094 -37.382812 1.847656 -37.710938 C 1.320312 -38.175781 1.386719 -38.636719 1.652344 -39.230469 C 1.914062 -39.691406 2.179688 -40.089844 2.507812 -40.484375 C 1.847656 -38.964844 2.574219 -37.449219 4.492188 -37.050781 C 6.011719 -36.789062 6.867188 -36.917969 7.660156 -37.117188 C 7.726562 -37.117188 7.265625 -36.523438 5.351562 -36.523438 Z M 12.21875 -3.5 C 12.351562 -2.839844 13.40625 -2.90625 13.339844 -3.566406 C 12.085938 -12.945312 11.558594 -22.324219 11.820312 -31.769531 C 11.820312 -31.832031 11.359375 -31.769531 11.359375 -31.636719 C 11.09375 -26.945312 11.09375 -20.011719 11.292969 -15.324219 C 11.160156 -15.324219 10.964844 -17.632812 10.832031 -17.566406 C 10.765625 -18.164062 10.699219 -18.757812 10.699219 -19.21875 C 10.632812 -21.664062 10.5 -24.105469 10.5 -26.484375 C 10.5 -28.929688 10.632812 -31.304688 10.632812 -33.75 C 10.566406 -34.34375 10.039062 -34.609375 9.578125 -34.542969 C 8.519531 -37.183594 5.152344 -34.738281 3.765625 -33.816406 C 3.566406 -33.617188 3.367188 -33.417969 3.234375 -33.15625 C 2.445312 -32.363281 2.046875 -31.105469 1.847656 -29.851562 C 1.585938 -27.476562 1.652344 -25.03125 1.652344 -22.652344 C 1.585938 -17.699219 1.914062 -12.8125 2.507812 -7.925781 C 2.773438 -6.078125 2.839844 -4.09375 4.226562 -2.773438 C 4.558594 -2.507812 4.886719 -2.3125 5.21875 -2.179688 L 5.351562 -1.980469 C 6.605469 -0.726562 8.585938 -0.332031 10.171875 -1.121094 C 10.765625 -1.386719 10.898438 -1.914062 10.832031 -2.378906 C 11.359375 -2.574219 11.886719 -2.972656 12.21875 -3.5 Z M 4.886719 -30.445312 C 4.886719 -30.578125 5.152344 -30.976562 5.351562 -31.105469 L 5.414062 -31.105469 C 4.6875 -28.992188 4.558594 -26.550781 4.558594 -24.304688 C 4.492188 -21.332031 4.558594 -18.359375 4.558594 -15.386719 L 4.359375 -15.386719 C 4.160156 -16.972656 3.960938 -18.558594 3.832031 -20.144531 C 3.832031 -20.210938 3.832031 -20.210938 3.832031 -20.277344 L 3.832031 -20.9375 C 3.960938 -23.972656 3.898438 -27.476562 4.886719 -30.445312 Z M 4.886719 -30.445312 "/></g></g></g><g fill="#003b64" fill-opacity="1"><g transform="translate(164.304588, 207.144345)"><g><path d="M 28.664062 0.199219 C 29.917969 0.199219 30.976562 -0.59375 31.703125 -1.585938 C 31.171875 -9.707031 30.445312 -17.898438 29.125 -25.957031 C 28.53125 -29.917969 27.871094 -33.949219 26.8125 -37.777344 C 26.484375 -39.03125 26.089844 -40.289062 25.824219 -41.542969 C 25.691406 -41.675781 25.558594 -41.808594 25.363281 -41.871094 C 24.238281 -42.664062 22.257812 -42.796875 21.464844 -41.34375 C 21.464844 -41.277344 21.398438 -41.277344 21.398438 -41.210938 C 20.9375 -40.949219 20.539062 -40.484375 20.277344 -40.023438 C 19.550781 -38.703125 20.144531 -37.449219 20.472656 -36.191406 C 21.132812 -33.816406 21.53125 -31.4375 21.992188 -29.058594 C 22.585938 -25.691406 23.3125 -22.191406 23.644531 -18.890625 L 22.585938 -20.9375 C 22.585938 -21.132812 22.585938 -21.332031 22.457031 -21.597656 C 21.132812 -24.304688 19.746094 -26.945312 18.230469 -29.523438 C 16.445312 -32.757812 14.597656 -35.929688 12.351562 -38.902344 C 11.09375 -40.550781 7.332031 -44.449219 5.285156 -41.742188 C 4.953125 -41.277344 4.753906 -40.75 4.753906 -40.222656 C 4.292969 -40.15625 3.832031 -39.890625 3.5 -39.628906 C 3.300781 -36.789062 3.433594 -33.882812 3.5 -30.976562 C 3.632812 -26.484375 3.699219 -21.925781 3.898438 -17.4375 C 4.09375 -11.886719 4.292969 -6.339844 4.625 -0.792969 C 5.085938 -0.199219 5.679688 0.265625 6.472656 0.460938 C 7.925781 0.925781 9.445312 0.394531 10.238281 -0.925781 C 12.945312 -1.320312 12.21875 -5.152344 12.152344 -7.199219 C 12.085938 -9.839844 12.019531 -12.484375 11.886719 -15.125 C 11.886719 -19.617188 11.953125 -24.105469 11.886719 -28.597656 C 12.21875 -28.136719 12.546875 -27.605469 12.945312 -27.144531 L 24.4375 -6.605469 L 24.832031 -4.359375 C 25.164062 -2.640625 25.558594 -0.59375 27.34375 0.199219 C 27.738281 0.394531 28.265625 0.460938 28.664062 0.199219 Z M 32.363281 -2.246094 C 32.429688 -3.171875 32.363281 -4.625 32.296875 -5.085938 C 32.363281 -16.777344 30.910156 -28.464844 28.53125 -39.957031 C 28.398438 -40.617188 27.605469 -40.617188 27.277344 -40.222656 C 27.011719 -39.957031 27.011719 -39.691406 27.078125 -39.496094 C 29.785156 -27.210938 31.238281 -14.660156 32.097656 -2.046875 C 32.164062 -2.179688 32.230469 -2.246094 32.363281 -2.246094 Z M 3.433594 -7.066406 C 3.699219 -4.226562 3.960938 -4.359375 3.960938 -4.359375 L 3.367188 -19.21875 C 3.234375 -23.84375 3.105469 -28.464844 3.039062 -33.023438 C 2.972656 -35.136719 2.90625 -37.25 2.972656 -39.363281 C 2.507812 -38.304688 2.378906 -37.050781 2.445312 -35.929688 C 2.507812 -31.171875 2.574219 -26.417969 2.773438 -21.730469 C 2.972656 -16.972656 3.039062 -11.757812 3.433594 -7.066406 Z M 10.832031 -10.304688 C 10.898438 -9.511719 10.964844 -8.785156 10.964844 -7.992188 C 11.09375 -6.671875 11.160156 -5.351562 11.226562 -4.09375 C 11.292969 -3.5 11.09375 -2.507812 10.699219 -1.847656 C 11.09375 -3.5 10.433594 -5.019531 10.433594 -6.078125 L 10.5 -10.039062 C 10.566406 -10.105469 10.632812 -10.105469 10.632812 -10.105469 Z M 10.832031 -10.304688 "/></g></g></g><g fill="#003b64" fill-opacity="1"><g transform="translate(197.125285, 207.144345)"><g><path d="M 33.683594 -2.574219 C 35.269531 -3.039062 35.070312 -5.019531 34.804688 -6.339844 C 34.144531 -8.917969 33.285156 -11.425781 32.164062 -13.871094 C 29.984375 -18.890625 26.75 -23.378906 22.71875 -27.144531 C 22.324219 -27.539062 21.664062 -27.078125 21.730469 -26.617188 C 21.398438 -26.878906 21.132812 -27.144531 20.804688 -27.410156 L 22.519531 -28.332031 C 26.75 -30.710938 31.105469 -33.351562 33.417969 -37.710938 C 33.816406 -38.503906 32.890625 -39.230469 32.230469 -38.703125 L 32.03125 -38.503906 C 32.03125 -39.5625 31.503906 -40.550781 30.445312 -40.816406 C 29.125 -41.210938 27.671875 -40.023438 26.617188 -39.429688 C 21.464844 -36.457031 14.992188 -33.285156 9.511719 -30.910156 C 9.378906 -33.351562 9.3125 -35.730469 9.246094 -38.175781 L 9.246094 -38.636719 C 9.246094 -38.636719 9.179688 -38.703125 9.179688 -38.636719 C 8.71875 -35.863281 8.386719 -33.089844 8.125 -30.25 C 7.925781 -30.183594 7.792969 -30.050781 7.59375 -29.851562 L 7.792969 -35.796875 C 7.859375 -37.316406 7.792969 -38.902344 8.191406 -40.222656 C 9.445312 -43.789062 4.027344 -45.96875 2.246094 -42.730469 C 2.113281 -42.46875 1.980469 -42.269531 1.914062 -42.003906 C 0.527344 -41.675781 0.394531 -40.089844 0.460938 -38.902344 C 0.460938 -37.710938 0.527344 -36.523438 0.527344 -35.335938 C 0.726562 -30.777344 0.925781 -26.285156 1.253906 -21.796875 C 1.585938 -17.304688 2.113281 -12.8125 2.640625 -8.320312 C 2.839844 -6.339844 2.839844 -4.359375 3.632812 -2.507812 C 4.292969 -1.058594 5.878906 -0.132812 7.398438 -0.332031 C 9.246094 0.332031 11.226562 -0.0664062 12.8125 -1.386719 C 13.273438 -1.785156 13.339844 -2.445312 13.210938 -2.972656 C 12.945312 -4.492188 12.351562 -5.945312 12.019531 -7.199219 C 11.757812 -8.652344 11.425781 -10.105469 11.226562 -11.558594 C 10.765625 -15.257812 10.367188 -18.953125 10.039062 -22.585938 C 10.5 -22.785156 11.03125 -22.984375 11.625 -23.246094 L 12.679688 -23.644531 C 14.597656 -22.257812 16.179688 -20.472656 17.765625 -18.691406 C 21.398438 -14.726562 24.898438 -10.238281 27.34375 -5.285156 C 27.34375 -4.625 27.476562 -4.027344 27.804688 -3.433594 C 28.332031 -2.3125 29.523438 -1.585938 30.777344 -1.585938 C 32.824219 -1.585938 34.078125 -3.300781 33.882812 -5.085938 C 33.550781 -8.917969 27.011719 -20.539062 24.503906 -23.644531 C 28.332031 -19.417969 31.238281 -14.726562 33.222656 -9.378906 C 33.683594 -8.058594 35.730469 -3.699219 33.617188 -2.839844 C 33.484375 -2.773438 33.550781 -2.507812 33.683594 -2.574219 Z M 33.683594 -2.574219 "/></g></g></g><g fill="#003b64" fill-opacity="1"><g transform="translate(229.292935, 207.144345)"><g/></g></g></svg>