<svg xmlns="http://www.w3.org/2000/svg" xmlns:xlink="http://www.w3.org/1999/xlink" width="500" zoomAndPan="magnify" viewBox="0 0 375 374.999991" height="500" preserveAspectRatio="xMidYMid meet" version="1.0"><defs><g/><clipPath id="b520030085"><path d="M 263 153.660156 L 272 153.660156 L 272 168 L 263 168 Z M 263 153.660156 " clip-rule="nonzero"/></clipPath><clipPath id="356d5e2153"><path d="M 263 208 L 272 208 L 272 221.902344 L 263 221.902344 Z M 263 208 " clip-rule="nonzero"/></clipPath><clipPath id="bdf9a103ab"><path d="M 233.398438 181 L 242 181 L 242 195 L 233.398438 195 Z M 233.398438 181 " clip-rule="nonzero"/></clipPath><clipPath id="e45da1c4bc"><path d="M 292 181 L 301.640625 181 L 301.640625 195 L 292 195 Z M 292 181 " clip-rule="nonzero"/></clipPath></defs><path fill="#003b64" d="M 263.175781 187.964844 C 263.175781 183.867188 263.171875 179.769531 263.175781 175.667969 C 263.175781 173.203125 265.074219 171.28125 267.484375 171.296875 C 269.859375 171.308594 271.730469 173.230469 271.730469 175.664062 C 271.734375 183.863281 271.734375 192.058594 271.730469 200.257812 C 271.730469 202.722656 269.832031 204.644531 267.421875 204.628906 C 265.046875 204.617188 263.175781 202.695312 263.175781 200.261719 C 263.171875 196.160156 263.175781 192.0625 263.175781 187.964844 Z M 263.175781 187.964844 " fill-opacity="1" fill-rule="nonzero"/><path fill="#003b64" d="M 256.625 179.261719 C 256.625 181.792969 256.648438 184.324219 256.617188 186.855469 C 256.59375 188.96875 255.167969 190.625 253.109375 191.011719 C 251.167969 191.378906 249.195312 190.304688 248.417969 188.445312 C 248.191406 187.902344 248.085938 187.335938 248.085938 186.746094 C 248.089844 181.769531 248.085938 176.796875 248.089844 171.820312 C 248.09375 169.335938 249.980469 167.414062 252.382812 167.421875 C 254.757812 167.425781 256.605469 169.320312 256.625 171.796875 C 256.640625 174.285156 256.625 176.773438 256.625 179.261719 Z M 256.625 179.261719 " fill-opacity="1" fill-rule="nonzero"/><path fill="#003b64" d="M 286.816406 196.671875 C 286.816406 199.207031 286.832031 201.738281 286.8125 204.269531 C 286.796875 206.460938 285.210938 208.167969 282.960938 208.476562 C 280.996094 208.746094 278.992188 207.375 278.433594 205.359375 C 278.339844 205.015625 278.289062 204.652344 278.285156 204.300781 C 278.277344 199.214844 278.261719 194.125 278.289062 189.039062 C 278.300781 186.957031 279.734375 185.316406 281.761719 184.921875 C 283.699219 184.539062 285.683594 185.601562 286.472656 187.449219 C 286.710938 188.011719 286.820312 188.597656 286.820312 189.214844 C 286.8125 191.703125 286.816406 194.1875 286.816406 196.675781 Z M 286.816406 196.671875 " fill-opacity="1" fill-rule="nonzero"/><path fill="#003b64" d="M 286.816406 174.238281 C 286.75 175.125 286.941406 176.203125 286.710938 177.265625 C 286.269531 179.3125 284.425781 180.738281 282.371094 180.625 C 280.207031 180.503906 278.492188 178.972656 278.320312 176.863281 C 278.171875 175.011719 278.175781 173.148438 278.3125 171.296875 C 278.484375 169.019531 280.46875 167.324219 282.679688 167.421875 C 284.996094 167.523438 286.789062 169.375 286.816406 171.707031 C 286.824219 172.488281 286.816406 173.273438 286.816406 174.238281 Z M 286.816406 174.238281 " fill-opacity="1" fill-rule="nonzero"/><path fill="#003b64" d="M 248.089844 201.664062 C 248.152344 200.816406 247.96875 199.738281 248.191406 198.671875 C 248.613281 196.660156 250.433594 195.21875 252.453125 195.292969 C 254.625 195.371094 256.414062 196.933594 256.582031 199.050781 C 256.730469 200.949219 256.738281 202.859375 256.578125 204.753906 C 256.394531 206.925781 254.398438 208.59375 252.234375 208.503906 C 250.003906 208.414062 248.183594 206.640625 248.09375 204.4375 C 248.0625 203.589844 248.089844 202.738281 248.089844 201.664062 Z M 248.089844 201.664062 " fill-opacity="1" fill-rule="nonzero"/><g clip-path="url(#b520030085)"><path fill="#003b64" d="M 263.175781 160.28125 C 263.238281 159.421875 263.050781 158.363281 263.265625 157.324219 C 263.730469 155.082031 265.710938 153.683594 268.027344 153.941406 C 270.121094 154.171875 271.726562 156.019531 271.730469 158.203125 C 271.734375 159.746094 271.738281 161.292969 271.730469 162.835938 C 271.71875 165.210938 269.820312 167.089844 267.445312 167.089844 C 265.074219 167.085938 263.183594 165.199219 263.175781 162.824219 C 263.171875 162.039062 263.175781 161.257812 263.175781 160.285156 Z M 263.175781 160.28125 " fill-opacity="1" fill-rule="nonzero"/></g><g clip-path="url(#356d5e2153)"><path fill="#003b64" d="M 263.175781 215.398438 C 263.175781 214.660156 263.175781 213.917969 263.175781 213.179688 C 263.179688 210.738281 265.039062 208.847656 267.4375 208.839844 C 269.84375 208.835938 271.726562 210.722656 271.730469 213.148438 C 271.734375 214.695312 271.738281 216.238281 271.730469 217.785156 C 271.71875 220.160156 269.832031 222.011719 267.433594 222.007812 C 265.082031 222.003906 263.195312 220.152344 263.175781 217.816406 C 263.167969 217.011719 263.175781 216.203125 263.175781 215.398438 Z M 263.175781 215.398438 " fill-opacity="1" fill-rule="nonzero"/></g><g clip-path="url(#bdf9a103ab)"><path fill="#003b64" d="M 241.917969 187.976562 C 241.917969 188.761719 241.921875 189.542969 241.917969 190.328125 C 241.902344 192.707031 240.023438 194.558594 237.632812 194.550781 C 235.285156 194.546875 233.421875 192.6875 233.410156 190.332031 C 233.402344 188.746094 233.398438 187.15625 233.410156 185.566406 C 233.425781 183.222656 235.300781 181.378906 237.660156 181.375 C 240.015625 181.375 241.898438 183.230469 241.917969 185.5625 C 241.921875 186.367188 241.917969 187.171875 241.917969 187.980469 Z M 241.917969 187.976562 " fill-opacity="1" fill-rule="nonzero"/></g><g clip-path="url(#e45da1c4bc)"><path fill="#003b64" d="M 301.496094 188.007812 C 301.496094 188.816406 301.503906 189.621094 301.496094 190.425781 C 301.472656 192.71875 299.582031 194.550781 297.25 194.550781 C 294.925781 194.550781 293.015625 192.710938 292.996094 190.433594 C 292.980469 188.777344 292.980469 187.121094 292.996094 185.464844 C 293.015625 183.222656 294.925781 181.378906 297.207031 181.375 C 299.550781 181.367188 301.460938 183.183594 301.496094 185.457031 C 301.507812 186.308594 301.496094 187.15625 301.496094 188.007812 Z M 301.496094 188.007812 " fill-opacity="1" fill-rule="nonzero"/></g><g fill="#003b64" fill-opacity="1"><g transform="translate(78.377371, 216.591935)"><g><path d="M 43.78125 -52.8125 L 13.578125 -52.8125 C 10.027344 -52.6875 8.53125 -50.695312 8.53125 -48.703125 C 8.53125 -46.832031 9.902344 -45.027344 12.144531 -45.027344 L 21.796875 -45.027344 L 8.160156 -5.792969 C 7.910156 -5.167969 7.847656 -4.546875 7.847656 -4.046875 C 7.847656 -1.433594 10.152344 0 12.519531 0 C 14.636719 0 16.753906 -1.121094 17.5625 -3.488281 L 32.074219 -45.027344 L 42.226562 -45.027344 C 45.714844 -45.027344 47.207031 -47.144531 47.207031 -49.136719 C 47.207031 -51.007812 45.898438 -52.8125 43.78125 -52.8125 Z M 43.78125 -52.8125 "/></g></g></g><g fill="#003b64" fill-opacity="1"><g transform="translate(114.808439, 216.591935)"><g><path d="M 35.5 -18.0625 C 32.757812 -10.585938 29.207031 -7.410156 26.40625 -7.410156 C 25.222656 -7.410156 24.476562 -8.097656 24.476562 -9.03125 C 24.476562 -9.28125 24.539062 -9.589844 24.664062 -9.839844 L 29.769531 -24.351562 C 30.207031 -25.535156 30.328125 -26.65625 30.328125 -27.714844 C 30.328125 -32.695312 26.40625 -36.558594 21.363281 -36.558594 C 19.867188 -36.558594 18.683594 -36.308594 17.375 -35.75 L 21.300781 -47.207031 C 21.609375 -48.203125 21.921875 -49.136719 21.921875 -49.949219 C 21.921875 -52.5625 19.867188 -54.058594 17.8125 -54.058594 C 15.382812 -54.058594 13.886719 -52.625 12.703125 -49.324219 L -2.242188 -6.976562 C -2.554688 -6.101562 -2.679688 -5.292969 -2.679688 -4.546875 C -2.679688 -1.742188 -0.621094 0 1.496094 0 C 3.300781 0 5.167969 -1.121094 6.101562 -3.738281 L 13.640625 -25.035156 C 14.945312 -27.402344 17.066406 -29.207031 18.996094 -29.207031 C 20.242188 -29.207031 21.113281 -28.273438 21.113281 -27.152344 C 21.113281 -26.78125 21.050781 -26.40625 20.863281 -26.03125 L 16.316406 -13.015625 C 15.820312 -11.523438 15.570312 -10.152344 15.570312 -8.90625 C 15.570312 -3.050781 20.550781 0 25.847656 0 C 31.761719 0 38.550781 -3.675781 43.035156 -16.628906 C 43.160156 -17.066406 43.222656 -17.4375 43.222656 -17.8125 C 43.222656 -19.742188 41.351562 -20.988281 39.359375 -20.988281 C 37.804688 -20.988281 36.121094 -20.117188 35.5 -18.0625 Z M 35.5 -18.0625 "/></g></g></g><g fill="#003b64" fill-opacity="1"><g transform="translate(147.378418, 216.591935)"><g><path d="M 16.753906 -42.289062 C 19.554688 -42.289062 21.859375 -44.59375 21.859375 -47.457031 C 21.859375 -50.257812 19.554688 -52.5 16.753906 -52.5 C 13.949219 -52.5 11.644531 -50.257812 11.644531 -47.457031 C 11.644531 -44.59375 13.949219 -42.289062 16.753906 -42.289062 Z M 8.34375 -10.523438 L 15.195312 -30.082031 C 15.445312 -30.890625 15.757812 -31.761719 15.757812 -32.386719 C 15.757812 -35.125 13.703125 -36.558594 11.582031 -36.558594 C 9.652344 -36.558594 7.597656 -35.1875 6.601562 -32.261719 C 4.609375 -26.40625 1.992188 -18.996094 0 -13.203125 C -0.375 -11.957031 -0.871094 -10.277344 -0.871094 -9.21875 C -0.871094 -3.363281 3.984375 0 9.714844 0 C 15.820312 0 22.546875 -3.738281 26.90625 -16.628906 C 27.027344 -17.003906 27.089844 -17.375 27.089844 -17.75 C 27.089844 -19.679688 25.222656 -20.863281 23.355469 -20.863281 C 21.671875 -20.863281 19.992188 -19.992188 19.246094 -18.0625 C 16.316406 -9.964844 13.015625 -7.410156 10.523438 -7.410156 C 9.09375 -7.410156 8.160156 -8.34375 8.160156 -9.527344 C 8.160156 -9.839844 8.222656 -10.152344 8.34375 -10.523438 Z M 8.34375 -10.523438 "/></g></g></g><g fill="#003b64" fill-opacity="1"><g transform="translate(163.756758, 216.591935)"><g><path d="M 34.75 -17.9375 C 32.011719 -10.464844 28.585938 -7.410156 25.660156 -7.410156 C 24.539062 -7.410156 23.914062 -7.972656 23.914062 -9.03125 C 23.914062 -9.464844 24.039062 -9.964844 24.226562 -10.585938 L 29.085938 -24.414062 C 29.519531 -25.660156 29.769531 -26.78125 29.769531 -27.839844 C 29.769531 -32.820312 25.535156 -36.558594 20.550781 -36.558594 C 18.125 -36.558594 16.191406 -35.996094 14.574219 -34.8125 C 14.199219 -35.933594 12.644531 -36.558594 10.960938 -36.558594 C 9.21875 -36.558594 7.535156 -35.75 6.914062 -34.003906 L -3.488281 -4.921875 C -3.675781 -4.359375 -3.738281 -3.859375 -3.738281 -3.363281 C -3.738281 -1.058594 -1.929688 0.125 0.0625 0.125 C 2.242188 0.125 4.734375 -1.246094 5.667969 -4.046875 C 7.847656 -10.089844 10.835938 -18.621094 12.953125 -24.601562 C 14.636719 -27.714844 16.816406 -29.207031 18.558594 -29.207031 C 19.679688 -29.207031 20.488281 -28.460938 20.488281 -27.277344 C 20.488281 -26.84375 20.367188 -26.28125 20.179688 -25.722656 L 15.632812 -12.890625 C 15.132812 -11.460938 14.824219 -10.089844 14.824219 -8.78125 C 14.824219 -3.050781 19.554688 0 24.847656 0 C 31.203125 0 37.992188 -4.296875 42.289062 -16.441406 C 42.472656 -16.941406 42.597656 -17.4375 42.597656 -17.875 C 42.597656 -19.867188 40.792969 -20.925781 38.925781 -20.925781 C 37.242188 -20.925781 35.375 -19.992188 34.75 -17.9375 Z M 34.75 -17.9375 "/></g></g></g><g fill="#003b64" fill-opacity="1"><g transform="translate(195.641706, 216.591935)"><g><path d="M 34.503906 -17.375 C 32.324219 -11.085938 29.148438 -7.410156 26.03125 -7.410156 C 25.160156 -7.410156 24.847656 -7.910156 24.847656 -8.46875 C 24.847656 -8.96875 24.972656 -9.589844 25.160156 -10.152344 C 26.09375 -13.078125 26.40625 -13.824219 26.40625 -15.382812 C 26.40625 -16.878906 26.03125 -18.183594 25.160156 -19.121094 C 26.90625 -20.117188 28.523438 -21.671875 29.457031 -24.164062 C 29.832031 -25.222656 30.082031 -26.40625 30.082031 -27.527344 C 30.082031 -32.324219 26.28125 -36.558594 20.863281 -36.558594 C 19.679688 -36.558594 18.746094 -36.496094 17.625 -36.121094 L 21.484375 -47.269531 C 21.796875 -48.140625 22.046875 -48.953125 22.046875 -49.699219 C 22.046875 -52.4375 19.992188 -54.058594 17.8125 -54.058594 C 15.757812 -54.058594 14.011719 -52.6875 12.953125 -49.699219 L -2.617188 -4.734375 C -2.742188 -4.234375 -2.800781 -3.859375 -2.800781 -3.425781 C -2.800781 -1.183594 -0.871094 0 1.246094 0 C 3.488281 0 5.855469 -1.308594 6.664062 -3.800781 L 10.464844 -15.695312 C 11.769531 -14.449219 13.078125 -14.074219 14.199219 -14.074219 C 15.445312 -14.074219 16.441406 -14.511719 17.003906 -14.761719 C 17.4375 -14.945312 16.816406 -13.640625 16.566406 -13.015625 C 15.945312 -11.335938 15.632812 -9.652344 15.632812 -8.097656 C 15.632812 -3.300781 18.621094 0 24.726562 0 C 33.132812 0 39.050781 -6.476562 42.164062 -16.128906 C 42.289062 -16.503906 42.351562 -16.816406 42.351562 -17.125 C 42.351562 -18.996094 40.417969 -20.117188 38.488281 -20.117188 C 36.808594 -20.117188 35.0625 -19.304688 34.503906 -17.375 Z M 12.890625 -22.605469 L 14.011719 -25.785156 C 15.132812 -28.027344 17.066406 -29.207031 18.871094 -29.207031 C 20.425781 -29.207031 21.609375 -28.398438 21.609375 -27.027344 C 21.609375 -26.65625 21.546875 -26.28125 21.363281 -25.847656 C 20.800781 -24.414062 19.492188 -23.417969 18 -22.980469 C 17.25 -23.105469 16.566406 -23.230469 15.882812 -23.230469 C 14.636719 -23.230469 13.578125 -22.980469 12.890625 -22.605469 Z M 12.890625 -22.605469 "/></g></g></g><g fill="#003b64" fill-opacity="1"><g transform="translate(227.473, 216.591935)"><g/></g></g></svg>