<svg xmlns="http://www.w3.org/2000/svg" xmlns:xlink="http://www.w3.org/1999/xlink" width="500" zoomAndPan="magnify" viewBox="0 0 375 374.999991" height="500" preserveAspectRatio="xMidYMid meet" version="1.0"><defs><g/></defs><g fill="#003b64" fill-opacity="1"><g transform="translate(80.006813, 203.800522)"><g><path d="M 31.464844 -32.457031 C 32.789062 -33.007812 32.84375 -35.101562 31.578125 -35.820312 C 31.464844 -35.929688 31.355469 -35.984375 31.246094 -36.039062 C 31.355469 -36.09375 31.519531 -36.09375 31.632812 -36.09375 C 32.183594 -36.207031 32.015625 -37.140625 31.519531 -37.085938 C 30.695312 -36.976562 29.867188 -36.921875 29.042969 -36.8125 C 28.710938 -36.867188 28.378906 -36.8125 28.105469 -36.8125 C 27.554688 -36.757812 27.003906 -36.703125 26.394531 -36.589844 C 18.738281 -35.929688 11.023438 -35.765625 3.304688 -36.207031 C 3.140625 -36.261719 3.085938 -35.929688 3.25 -35.929688 C 6.226562 -35.433594 9.203125 -35.101562 12.179688 -34.9375 C 12.179688 -34.882812 12.125 -34.828125 12.125 -34.773438 C 9.09375 -34.773438 6.117188 -34.992188 3.085938 -35.269531 C 1.875 -35.378906 0.773438 -34.332031 0.441406 -33.230469 C 0.109375 -31.90625 0.773438 -30.585938 1.875 -29.976562 C 2.203125 -29.097656 2.921875 -28.324219 3.636719 -27.828125 C 4.628906 -27.222656 5.839844 -27.058594 7 -26.890625 C 8.429688 -26.78125 9.917969 -26.726562 11.40625 -26.726562 C 12.125 -26.726562 12.839844 -26.726562 13.554688 -26.726562 L 13.554688 -24.964844 L 13.445312 -22.539062 C 13.335938 -19.671875 13.171875 -16.808594 13.003906 -13.996094 C 12.894531 -11.1875 12.839844 -8.320312 13.003906 -5.511719 C 13.117188 -3.363281 13.613281 -0.828125 15.925781 -0.109375 C 17.082031 0.21875 18.460938 -0.441406 18.847656 -1.652344 C 19.234375 -2.753906 19.289062 -4.296875 19.507812 -5.289062 L 19.507812 -3.195312 C 19.453125 -2.425781 19.453125 -1.652344 19.398438 -0.882812 L 19.398438 -0.773438 C 20.390625 -1.542969 20.609375 -2.867188 20.71875 -4.1875 C 20.664062 -6.117188 20.554688 -8.046875 20.5 -9.972656 C 20.5 -13.335938 20.445312 -16.699219 20.445312 -20.058594 C 20.445312 -22.484375 20.5 -24.910156 20.5 -27.332031 C 23.308594 -27.71875 26.066406 -28.214844 28.875 -28.765625 C 29.042969 -28.765625 29.152344 -28.875 29.261719 -28.988281 C 29.539062 -29.042969 29.867188 -29.152344 30.089844 -29.316406 C 30.96875 -29.921875 31.191406 -30.914062 31.246094 -31.90625 C 31.355469 -32.074219 31.410156 -32.238281 31.464844 -32.457031 Z M 7 -28.214844 C 5.675781 -28.269531 4.242188 -28.65625 3.363281 -29.484375 C 5.511719 -28.820312 7.714844 -28.433594 9.917969 -28.214844 C 8.925781 -28.160156 7.933594 -28.160156 7 -28.214844 Z M 7 -28.214844 "/></g></g></g><g fill="#003b64" fill-opacity="1"><g transform="translate(106.952745, 203.800522)"><g><path d="M 28.160156 -17.304688 C 29.539062 -18.792969 29.316406 -21.65625 27.167969 -22.375 C 26.671875 -22.484375 26.230469 -22.648438 25.789062 -22.703125 L 25.789062 -23.917969 C 25.84375 -25.238281 25.84375 -26.5625 25.789062 -27.828125 C 25.789062 -27.996094 25.84375 -28.160156 25.789062 -28.324219 C 25.679688 -30.253906 25.902344 -32.679688 24.851562 -34.386719 C 23.75 -36.261719 21.4375 -36.316406 19.785156 -35.214844 C 17.910156 -33.945312 18.242188 -31.742188 18.570312 -29.8125 C 18.679688 -27.554688 18.847656 -25.238281 18.957031 -22.980469 C 18.351562 -22.925781 17.800781 -22.816406 17.195312 -22.757812 C 15.265625 -22.59375 13.335938 -22.429688 11.40625 -22.152344 L 11.296875 -22.152344 C 11.132812 -24.632812 10.964844 -27.167969 10.800781 -29.703125 L 10.636719 -32.347656 C 10.582031 -32.84375 10.359375 -33.890625 9.808594 -34.113281 C 9.589844 -34.222656 9.421875 -34.277344 9.203125 -34.277344 L 9.203125 -34.386719 C 9.148438 -35.65625 7.769531 -36.535156 6.613281 -36.371094 C 5.402344 -36.207031 4.464844 -35.046875 4.628906 -33.78125 C 5.179688 -29.59375 5.289062 -25.292969 5.34375 -21.050781 L 5.234375 -21.050781 C 5.179688 -21.050781 5.125 -20.941406 5.070312 -20.886719 C 4.90625 -22.925781 4.683594 -25.074219 4.464844 -27.113281 C 4.1875 -29.8125 4.023438 -32.570312 3.472656 -35.214844 C 3.472656 -35.324219 3.304688 -35.324219 3.304688 -35.214844 C 3.195312 -32.625 3.417969 -29.976562 3.472656 -27.386719 C 3.582031 -25.128906 3.636719 -22.871094 3.691406 -20.664062 C 2.867188 -20.390625 2.148438 -19.949219 1.707031 -19.234375 C 1.378906 -18.957031 1.046875 -18.625 0.828125 -18.296875 C -0.496094 -16.476562 1.433594 -14.21875 3.304688 -14.988281 L 3.859375 -15.210938 C 4.023438 -11.132812 4.078125 -7 4.410156 -2.921875 C 4.410156 -2.535156 4.792969 -2.316406 5.125 -2.316406 C 5.234375 -2.039062 5.34375 -1.761719 5.511719 -1.488281 C 6.558594 0.441406 8.597656 0.21875 9.972656 -1.210938 C 10.636719 -1.929688 10.800781 -3.195312 10.910156 -4.132812 C 10.964844 -4.574219 10.964844 -5.070312 11.023438 -5.511719 L 11.023438 -5.675781 C 11.351562 -7.441406 11.296875 -9.3125 11.296875 -11.132812 C 11.296875 -12.730469 11.242188 -14.328125 11.1875 -15.925781 C 13.28125 -16.035156 15.429688 -16.089844 17.523438 -16.089844 C 17.910156 -16.089844 18.242188 -16.089844 18.625 -16.089844 L 18.625 -14.050781 C 18.625 -11.957031 18.679688 -9.808594 18.792969 -7.714844 C 18.847656 -5.566406 18.957031 -3.472656 19.121094 -1.324219 C 19.175781 -0.605469 19.289062 0.332031 19.785156 0.882812 C 20.390625 1.652344 21.382812 1.984375 22.375 1.378906 C 22.648438 1.210938 22.925781 0.992188 23.089844 0.773438 C 23.144531 0.773438 23.144531 0.773438 23.144531 0.714844 C 24.300781 0.0546875 24.523438 -1.820312 24.6875 -3.03125 C 24.851562 -4.351562 24.964844 -5.675781 25.074219 -7.054688 C 25.238281 -9.753906 25.40625 -12.507812 25.515625 -15.210938 C 26.726562 -15.042969 27.996094 -15.816406 28.160156 -17.136719 Z M 13.171875 -17.578125 C 14.988281 -17.691406 16.808594 -17.632812 18.625 -17.578125 L 18.625 -17.304688 C 18.296875 -17.304688 17.910156 -17.304688 17.523438 -17.359375 C 15.429688 -17.359375 13.28125 -17.25 11.132812 -17.027344 L 11.132812 -17.25 C 11.242188 -17.304688 11.296875 -17.414062 11.351562 -17.523438 C 11.957031 -17.523438 12.566406 -17.578125 13.171875 -17.578125 Z M 13.171875 -17.578125 "/></g></g></g><g fill="#003b64" fill-opacity="1"><g transform="translate(131.19851, 203.800522)"><g><path d="M 0.773438 -31.796875 C 0.882812 -31.246094 1.652344 -30.804688 2.148438 -30.640625 C 2.976562 -30.308594 3.800781 -30.199219 4.683594 -30.199219 C 5.730469 -30.199219 6.945312 -30.472656 7.605469 -31.246094 C 8.652344 -31.464844 9.699219 -31.960938 10.527344 -32.570312 C 10.964844 -32.898438 11.351562 -33.449219 11.132812 -34.054688 C 10.582031 -35.488281 9.476562 -36.316406 7.992188 -36.703125 C 6.28125 -37.140625 4.574219 -36.480469 3.140625 -35.488281 C 3.03125 -35.433594 2.921875 -35.324219 2.808594 -35.214844 C 2.257812 -34.828125 1.820312 -34.386719 1.433594 -33.835938 C 1.046875 -33.285156 0.550781 -32.511719 0.773438 -31.796875 Z M 4.464844 -30.472656 C 3.800781 -30.53125 3.195312 -30.640625 2.589844 -30.859375 C 2.203125 -30.96875 1.875 -31.191406 1.542969 -31.464844 C 1.101562 -31.851562 1.15625 -32.238281 1.378906 -32.734375 C 1.597656 -33.121094 1.820312 -33.449219 2.09375 -33.78125 C 1.542969 -32.511719 2.148438 -31.246094 3.746094 -30.914062 C 5.015625 -30.695312 5.730469 -30.804688 6.390625 -30.96875 C 6.449219 -30.96875 6.0625 -30.472656 4.464844 -30.472656 Z M 10.195312 -2.921875 C 10.304688 -2.371094 11.1875 -2.425781 11.132812 -2.976562 C 10.085938 -10.800781 9.644531 -18.625 9.863281 -26.507812 C 9.863281 -26.5625 9.476562 -26.507812 9.476562 -26.394531 C 9.257812 -22.484375 9.257812 -16.699219 9.421875 -12.785156 C 9.3125 -12.785156 9.148438 -14.714844 9.039062 -14.660156 C 8.984375 -15.15625 8.925781 -15.652344 8.925781 -16.035156 C 8.871094 -18.074219 8.761719 -20.113281 8.761719 -22.097656 C 8.761719 -24.136719 8.871094 -26.121094 8.871094 -28.160156 C 8.816406 -28.65625 8.375 -28.875 7.992188 -28.820312 C 7.109375 -31.027344 4.296875 -28.988281 3.140625 -28.214844 C 2.976562 -28.050781 2.808594 -27.882812 2.699219 -27.664062 C 2.039062 -27.003906 1.707031 -25.957031 1.542969 -24.910156 C 1.324219 -22.925781 1.378906 -20.886719 1.378906 -18.902344 C 1.324219 -14.769531 1.597656 -10.691406 2.09375 -6.613281 C 2.316406 -5.070312 2.371094 -3.417969 3.527344 -2.316406 C 3.800781 -2.09375 4.078125 -1.929688 4.351562 -1.820312 L 4.464844 -1.652344 C 5.511719 -0.605469 7.164062 -0.277344 8.488281 -0.9375 C 8.984375 -1.15625 9.09375 -1.597656 9.039062 -1.984375 C 9.476562 -2.148438 9.917969 -2.480469 10.195312 -2.921875 Z M 4.078125 -25.40625 C 4.078125 -25.515625 4.296875 -25.84375 4.464844 -25.957031 L 4.519531 -25.957031 C 3.914062 -24.191406 3.800781 -22.152344 3.800781 -20.28125 C 3.746094 -17.800781 3.800781 -15.320312 3.800781 -12.839844 L 3.636719 -12.839844 C 3.472656 -14.164062 3.304688 -15.484375 3.195312 -16.808594 C 3.195312 -16.863281 3.195312 -16.863281 3.195312 -16.917969 L 3.195312 -17.46875 C 3.304688 -20.003906 3.25 -22.925781 4.078125 -25.40625 Z M 4.078125 -25.40625 "/></g></g></g><g fill="#003b64" fill-opacity="1"><g transform="translate(137.755483, 203.800522)"><g><path d="M 23.917969 0.164062 C 24.964844 0.164062 25.84375 -0.496094 26.453125 -1.324219 C 26.011719 -8.101562 25.40625 -14.933594 24.300781 -21.65625 C 23.804688 -24.964844 23.253906 -28.324219 22.375 -31.519531 C 22.097656 -32.570312 21.765625 -33.617188 21.546875 -34.664062 C 21.4375 -34.773438 21.328125 -34.882812 21.160156 -34.9375 C 20.222656 -35.597656 18.570312 -35.710938 17.910156 -34.496094 C 17.910156 -34.441406 17.855469 -34.441406 17.855469 -34.386719 C 17.46875 -34.167969 17.136719 -33.78125 16.917969 -33.394531 C 16.3125 -32.292969 16.808594 -31.246094 17.082031 -30.199219 C 17.632812 -28.214844 17.964844 -26.230469 18.351562 -24.246094 C 18.847656 -21.4375 19.453125 -18.515625 19.726562 -15.761719 L 18.847656 -17.46875 C 18.847656 -17.632812 18.847656 -17.800781 18.738281 -18.019531 C 17.632812 -20.28125 16.476562 -22.484375 15.210938 -24.632812 C 13.722656 -27.332031 12.179688 -29.976562 10.304688 -32.457031 C 9.257812 -33.835938 6.117188 -37.085938 4.410156 -34.828125 C 4.132812 -34.441406 3.96875 -34 3.96875 -33.558594 C 3.582031 -33.503906 3.195312 -33.285156 2.921875 -33.066406 C 2.753906 -30.695312 2.867188 -28.269531 2.921875 -25.84375 C 3.03125 -22.097656 3.085938 -18.296875 3.25 -14.546875 C 3.417969 -9.917969 3.582031 -5.289062 3.859375 -0.660156 C 4.242188 -0.164062 4.738281 0.21875 5.402344 0.386719 C 6.613281 0.773438 7.878906 0.332031 8.542969 -0.773438 C 10.800781 -1.101562 10.195312 -4.296875 10.140625 -6.007812 C 10.085938 -8.210938 10.03125 -10.414062 9.917969 -12.621094 C 9.917969 -16.367188 9.972656 -20.113281 9.917969 -23.863281 C 10.195312 -23.476562 10.46875 -23.035156 10.800781 -22.648438 L 20.390625 -5.511719 L 20.71875 -3.636719 C 20.996094 -2.203125 21.328125 -0.496094 22.816406 0.164062 C 23.144531 0.332031 23.585938 0.386719 23.917969 0.164062 Z M 27.003906 -1.875 C 27.058594 -2.644531 27.003906 -3.859375 26.949219 -4.242188 C 27.003906 -13.996094 25.789062 -23.75 23.804688 -33.339844 C 23.695312 -33.890625 23.035156 -33.890625 22.757812 -33.558594 C 22.539062 -33.339844 22.539062 -33.121094 22.59375 -32.953125 C 24.851562 -22.703125 26.066406 -12.234375 26.78125 -1.707031 C 26.835938 -1.820312 26.890625 -1.875 27.003906 -1.875 Z M 2.867188 -5.898438 C 3.085938 -3.527344 3.304688 -3.636719 3.304688 -3.636719 L 2.808594 -16.035156 C 2.699219 -19.894531 2.589844 -23.75 2.535156 -27.554688 C 2.480469 -29.316406 2.425781 -31.082031 2.480469 -32.84375 C 2.09375 -31.960938 1.984375 -30.914062 2.039062 -29.976562 C 2.09375 -26.011719 2.148438 -22.042969 2.316406 -18.128906 C 2.480469 -14.164062 2.535156 -9.808594 2.867188 -5.898438 Z M 9.039062 -8.597656 C 9.09375 -7.933594 9.148438 -7.328125 9.148438 -6.667969 C 9.257812 -5.566406 9.3125 -4.464844 9.367188 -3.417969 C 9.421875 -2.921875 9.257812 -2.09375 8.925781 -1.542969 C 9.257812 -2.921875 8.707031 -4.1875 8.707031 -5.070312 L 8.761719 -8.375 C 8.816406 -8.429688 8.871094 -8.429688 8.871094 -8.429688 Z M 9.039062 -8.597656 "/></g></g></g><g fill="#003b64" fill-opacity="1"><g transform="translate(160.844039, 203.800522)"><g><path d="M 28.105469 -2.148438 C 29.425781 -2.535156 29.261719 -4.1875 29.042969 -5.289062 C 28.492188 -7.441406 27.773438 -9.535156 26.835938 -11.574219 C 25.019531 -15.761719 22.320312 -19.507812 18.957031 -22.648438 C 18.625 -22.980469 18.074219 -22.59375 18.128906 -22.207031 C 17.855469 -22.429688 17.632812 -22.648438 17.359375 -22.871094 L 18.792969 -23.640625 C 22.320312 -25.625 25.957031 -27.828125 27.882812 -31.464844 C 28.214844 -32.128906 27.445312 -32.734375 26.890625 -32.292969 L 26.726562 -32.128906 C 26.726562 -33.007812 26.285156 -33.835938 25.40625 -34.054688 C 24.300781 -34.386719 23.089844 -33.394531 22.207031 -32.898438 C 17.910156 -30.417969 12.507812 -27.773438 7.933594 -25.789062 C 7.824219 -27.828125 7.769531 -29.8125 7.714844 -31.851562 L 7.714844 -32.238281 C 7.714844 -32.238281 7.660156 -32.292969 7.660156 -32.238281 C 7.273438 -29.921875 7 -27.609375 6.777344 -25.238281 C 6.613281 -25.183594 6.503906 -25.074219 6.335938 -24.910156 L 6.503906 -29.867188 C 6.558594 -31.136719 6.503906 -32.457031 6.832031 -33.558594 C 7.878906 -36.535156 3.363281 -38.355469 1.875 -35.65625 C 1.761719 -35.433594 1.652344 -35.269531 1.597656 -35.046875 C 0.441406 -34.773438 0.332031 -33.449219 0.386719 -32.457031 C 0.386719 -31.464844 0.441406 -30.472656 0.441406 -29.484375 C 0.605469 -25.679688 0.773438 -21.933594 1.046875 -18.183594 C 1.324219 -14.4375 1.761719 -10.691406 2.203125 -6.945312 C 2.371094 -5.289062 2.371094 -3.636719 3.03125 -2.09375 C 3.582031 -0.882812 4.90625 -0.109375 6.171875 -0.277344 C 7.714844 0.277344 9.367188 -0.0546875 10.691406 -1.15625 C 11.078125 -1.488281 11.132812 -2.039062 11.023438 -2.480469 C 10.800781 -3.746094 10.304688 -4.960938 10.03125 -6.007812 C 9.808594 -7.21875 9.535156 -8.429688 9.367188 -9.644531 C 8.984375 -12.730469 8.652344 -15.816406 8.375 -18.847656 C 8.761719 -19.011719 9.203125 -19.175781 9.699219 -19.398438 L 10.582031 -19.726562 C 12.179688 -18.570312 13.5 -17.082031 14.824219 -15.59375 C 17.855469 -12.289062 20.777344 -8.542969 22.816406 -4.410156 C 22.816406 -3.859375 22.925781 -3.363281 23.199219 -2.867188 C 23.640625 -1.929688 24.632812 -1.324219 25.679688 -1.324219 C 27.386719 -1.324219 28.433594 -2.753906 28.269531 -4.242188 C 27.996094 -7.441406 22.539062 -17.136719 20.445312 -19.726562 C 23.640625 -16.203125 26.066406 -12.289062 27.71875 -7.824219 C 28.105469 -6.722656 29.8125 -3.085938 28.050781 -2.371094 C 27.941406 -2.316406 27.996094 -2.09375 28.105469 -2.148438 Z M 28.105469 -2.148438 "/></g></g></g><g fill="#003b64" fill-opacity="1"><g transform="translate(183.38609, 203.800522)"><g/></g></g><g fill="#003b64" fill-opacity="1"><g transform="translate(189.392009, 203.800522)"><g/></g></g><g fill="#003b64" fill-opacity="1"><g transform="translate(195.402285, 203.800522)"><g><path d="M 26.5625 -20.886719 C 25.570312 -22.320312 23.695312 -22.980469 22.152344 -22.042969 C 20.5 -21.105469 20.28125 -19.234375 20.996094 -17.632812 C 21.328125 -16.863281 21.382812 -16.035156 21.4375 -15.15625 C 21.492188 -13.226562 21.273438 -11.132812 20.28125 -9.367188 C 19.949219 -8.707031 19.398438 -8.046875 18.847656 -7.550781 C 17.359375 -6.226562 15.429688 -5.511719 13.390625 -5.457031 C 13.171875 -5.457031 12.894531 -5.511719 12.675781 -5.511719 C 9.09375 -5.730469 7.164062 -8.816406 6.117188 -12.070312 C 5.730469 -13.28125 5.511719 -14.546875 5.566406 -15.871094 C 5.566406 -16.148438 5.566406 -16.476562 5.621094 -16.753906 C 5.621094 -17.082031 5.675781 -17.082031 5.730469 -17.523438 C 6.613281 -22.207031 8.652344 -25.957031 12.398438 -28.820312 C 12.675781 -28.988281 12.894531 -29.152344 13.117188 -29.316406 L 13.445312 -18.679688 C 13.5 -16.917969 13.445312 -15.097656 14.21875 -13.390625 C 14.824219 -12.070312 16.3125 -11.132812 17.746094 -11.296875 C 18.902344 -11.40625 18.679688 -13.117188 17.523438 -12.894531 C 15.925781 -12.621094 15.15625 -14.382812 14.824219 -15.652344 L 14.824219 -15.816406 L 14.988281 -15.816406 C 15.097656 -15.484375 15.210938 -15.097656 15.429688 -14.769531 C 15.761719 -14.109375 16.257812 -13.554688 16.972656 -13.335938 C 17.082031 -13.335938 17.25 -13.28125 17.414062 -13.335938 C 17.46875 -13.226562 17.578125 -13.171875 17.746094 -13.058594 C 18.019531 -12.894531 18.460938 -13.058594 18.515625 -13.390625 C 18.679688 -14.109375 18.570312 -14.878906 18.570312 -15.652344 C 18.515625 -16.53125 18.460938 -17.46875 18.460938 -18.40625 L 18.296875 -23.640625 C 18.242188 -25.40625 18.183594 -30.804688 18.296875 -31.742188 C 18.351562 -32.570312 18.40625 -33.230469 18.074219 -33.890625 C 18.074219 -34.828125 17.359375 -35.65625 16.203125 -35.765625 C 14.878906 -35.875 13.5 -35.488281 12.398438 -34.828125 C 11.242188 -34.167969 10.140625 -33.449219 9.09375 -32.679688 C 6.832031 -31.082031 4.410156 -28.601562 2.753906 -26.394531 C 0.277344 -23.199219 -0.550781 -19.234375 -0.605469 -15.210938 C -0.605469 -13.996094 -0.441406 -12.785156 -0.21875 -11.628906 C 0.828125 -6.777344 4.410156 -2.753906 8.925781 -0.9375 C 13.554688 0.9375 19.011719 -0.277344 22.757812 -3.304688 C 25.074219 -5.125 26.453125 -8.046875 27.167969 -10.855469 C 27.996094 -13.941406 28.378906 -18.074219 26.5625 -20.886719 Z M 14.21875 -30.089844 C 14.050781 -28.050781 14.050781 -26.011719 14.164062 -23.972656 L 13.886719 -23.972656 C 13.722656 -25.789062 13.5 -27.609375 13.335938 -29.484375 C 13.613281 -29.648438 13.941406 -29.867188 14.21875 -30.089844 Z M 20.941406 -17.746094 C 20.941406 -17.800781 20.886719 -17.855469 20.886719 -17.855469 C 20.886719 -17.800781 20.941406 -17.800781 20.941406 -17.746094 Z M 20.996094 -17.632812 C 20.996094 -17.691406 20.941406 -17.691406 20.941406 -17.746094 C 20.941406 -17.691406 20.941406 -17.691406 20.996094 -17.632812 Z M 20.996094 -17.632812 "/></g></g></g><g fill="#003b64" fill-opacity="1"><g transform="translate(219.041894, 203.800522)"><g><path d="M 20.167969 -1.652344 C 21.4375 2.316406 25.515625 2.203125 24.910156 -2.753906 C 24.46875 -6.0625 23.53125 -10.527344 22.816406 -13.777344 C 25.84375 -15.707031 25.238281 -20.664062 21.050781 -21.160156 C 20.664062 -24.46875 20.335938 -32.789062 20.28125 -32.238281 C 20.058594 -30.417969 19.949219 -28.492188 19.894531 -26.617188 C 19.839844 -26.617188 19.839844 -26.617188 19.785156 -26.671875 C 19.5625 -28.820312 19.34375 -31.082031 19.175781 -33.285156 C 19.011719 -35.046875 17.855469 -36.152344 16.257812 -36.261719 C 15.816406 -37.140625 14.714844 -37.804688 13.777344 -37.75 C 10.964844 -37.695312 9.863281 -34.277344 8.871094 -32.128906 C 7.441406 -28.710938 6.558594 -25.128906 5.785156 -21.492188 C -0.773438 -20.5 -0.773438 -14.492188 2.753906 -13.613281 C 2.808594 -13.445312 2.753906 -13.226562 2.699219 -13.117188 C 3.140625 -13.117188 3.691406 -13.171875 4.1875 -13.226562 C 3.363281 -10.03125 2.808594 -6.832031 2.371094 -3.582031 C 1.652344 1.597656 8.488281 2.371094 8.925781 -2.644531 L 9.257812 -5.125 C 9.257812 -5.125 10.195312 -10.746094 10.910156 -13.445312 L 11.40625 -13.445312 C 10.359375 -10.195312 9.863281 -6.832031 9.589844 -3.527344 C 9.535156 -2.867188 10.46875 -2.867188 10.46875 -3.527344 C 10.746094 -6.886719 11.351562 -10.140625 12.179688 -13.445312 L 16.476562 -13.5 C 16.917969 -11.515625 19.121094 -2.039062 20.167969 -1.652344 Z M 12.011719 -20.609375 C 12.507812 -23.199219 13.171875 -25.40625 14.050781 -28.492188 C 14.601562 -25.957031 14.878906 -22.207031 15.097656 -20.832031 C 14.328125 -20.777344 12.785156 -20.71875 12.011719 -20.609375 Z M 12.011719 -20.609375 "/></g></g></g><g fill="#003b64" fill-opacity="1"><g transform="translate(239.926244, 203.800522)"><g><path d="M 26.394531 -20.003906 C 26.339844 -21.328125 26.339844 -22.648438 26.394531 -24.027344 C 26.617188 -26.617188 27.167969 -29.316406 26.835938 -31.90625 C 26.671875 -33.394531 25.734375 -34.609375 24.136719 -34.609375 C 22.703125 -34.609375 21.4375 -33.394531 21.4375 -31.90625 C 21.492188 -30.96875 21.492188 -30.035156 21.492188 -29.097656 L 21.214844 -29.371094 C 20.113281 -30.363281 18.902344 -31.191406 17.691406 -31.960938 C 15.097656 -33.671875 12.398438 -34.882812 9.421875 -35.765625 C 9.09375 -35.875 8.816406 -35.875 8.597656 -35.820312 C 7.441406 -36.207031 6.226562 -36.535156 5.015625 -36.644531 C 3.140625 -36.8125 1.542969 -35.65625 1.101562 -33.835938 C 0.660156 -32.015625 1.652344 -30.417969 2.644531 -29.042969 C 4.683594 -26.394531 7.054688 -24.082031 9.644531 -21.988281 L 10.46875 -21.328125 C 11.242188 -20.554688 12.011719 -19.785156 12.730469 -18.957031 C 14.601562 -17.027344 16.367188 -15.042969 18.074219 -13.003906 C 18.625 -12.34375 19.175781 -11.683594 19.671875 -11.023438 C 19.785156 -10.691406 19.949219 -10.414062 20.058594 -10.140625 C 20.28125 -9.699219 20.777344 -8.652344 20.5 -8.046875 C 20.5 -7.878906 20.5 -7.714844 20.335938 -7.550781 C 19.894531 -6.886719 18.792969 -6.777344 18.074219 -6.722656 C 16.863281 -6.613281 15.707031 -6.613281 14.546875 -6.722656 C 13.886719 -6.777344 13.226562 -6.886719 12.566406 -7.109375 C 11.902344 -7.605469 11.296875 -8.210938 10.746094 -8.761719 C 9.753906 -9.808594 9.09375 -11.1875 8.597656 -12.507812 C 7.328125 -16.148438 7.164062 -20.058594 6.007812 -23.695312 C 5.566406 -25.019531 4.464844 -25.515625 3.140625 -25.347656 C 2.039062 -25.183594 1.210938 -24.136719 0.992188 -23.144531 C 0.660156 -21.546875 0.992188 -19.839844 1.210938 -18.296875 C 1.433594 -16.53125 1.652344 -14.769531 2.09375 -13.058594 C 2.921875 -10.03125 3.527344 -6.945312 3.859375 -3.859375 C 3.96875 -3.304688 4.132812 -2.808594 4.464844 -2.425781 C 4.628906 -1.433594 5.179688 -0.496094 5.785156 0.109375 C 6.335938 0.660156 7.21875 0.660156 7.769531 0.109375 C 8.488281 -0.496094 8.871094 -1.378906 9.09375 -2.316406 C 10.140625 -1.652344 11.296875 -1.15625 12.507812 -0.882812 C 14.273438 -0.386719 16.367188 -0.164062 18.242188 -0.441406 L 18.40625 -0.441406 C 21.878906 -0.605469 25.625 -3.195312 25.734375 -6.777344 C 25.957031 -8.210938 25.625 -9.699219 25.019531 -11.078125 C 24.6875 -12.566406 23.917969 -13.941406 22.925781 -15.210938 C 21.492188 -17.027344 19.839844 -18.738281 18.242188 -20.445312 C 16.585938 -22.261719 14.824219 -24.027344 13.058594 -25.734375 L 10.800781 -27.882812 C 12.234375 -27.554688 13.722656 -27.058594 15.097656 -26.453125 C 17.746094 -25.238281 20.167969 -23.53125 21.765625 -21.160156 C 21.824219 -21.160156 21.824219 -21.105469 21.878906 -21.105469 C 22.207031 -18.515625 23.144531 -14.878906 25.84375 -15.539062 C 26.617188 -15.761719 27.058594 -16.585938 26.835938 -17.304688 C 26.671875 -18.242188 26.453125 -19.066406 26.394531 -20.003906 Z M 26.394531 -20.003906 "/></g></g></g><g fill="#003b64" fill-opacity="1"><g transform="translate(263.014801, 203.800522)"><g><path d="M 31.464844 -32.457031 C 32.789062 -33.007812 32.84375 -35.101562 31.578125 -35.820312 C 31.464844 -35.929688 31.355469 -35.984375 31.246094 -36.039062 C 31.355469 -36.09375 31.519531 -36.09375 31.632812 -36.09375 C 32.183594 -36.207031 32.015625 -37.140625 31.519531 -37.085938 C 30.695312 -36.976562 29.867188 -36.921875 29.042969 -36.8125 C 28.710938 -36.867188 28.378906 -36.8125 28.105469 -36.8125 C 27.554688 -36.757812 27.003906 -36.703125 26.394531 -36.589844 C 18.738281 -35.929688 11.023438 -35.765625 3.304688 -36.207031 C 3.140625 -36.261719 3.085938 -35.929688 3.25 -35.929688 C 6.226562 -35.433594 9.203125 -35.101562 12.179688 -34.9375 C 12.179688 -34.882812 12.125 -34.828125 12.125 -34.773438 C 9.09375 -34.773438 6.117188 -34.992188 3.085938 -35.269531 C 1.875 -35.378906 0.773438 -34.332031 0.441406 -33.230469 C 0.109375 -31.90625 0.773438 -30.585938 1.875 -29.976562 C 2.203125 -29.097656 2.921875 -28.324219 3.636719 -27.828125 C 4.628906 -27.222656 5.839844 -27.058594 7 -26.890625 C 8.429688 -26.78125 9.917969 -26.726562 11.40625 -26.726562 C 12.125 -26.726562 12.839844 -26.726562 13.554688 -26.726562 L 13.554688 -24.964844 L 13.445312 -22.539062 C 13.335938 -19.671875 13.171875 -16.808594 13.003906 -13.996094 C 12.894531 -11.1875 12.839844 -8.320312 13.003906 -5.511719 C 13.117188 -3.363281 13.613281 -0.828125 15.925781 -0.109375 C 17.082031 0.21875 18.460938 -0.441406 18.847656 -1.652344 C 19.234375 -2.753906 19.289062 -4.296875 19.507812 -5.289062 L 19.507812 -3.195312 C 19.453125 -2.425781 19.453125 -1.652344 19.398438 -0.882812 L 19.398438 -0.773438 C 20.390625 -1.542969 20.609375 -2.867188 20.71875 -4.1875 C 20.664062 -6.117188 20.554688 -8.046875 20.5 -9.972656 C 20.5 -13.335938 20.445312 -16.699219 20.445312 -20.058594 C 20.445312 -22.484375 20.5 -24.910156 20.5 -27.332031 C 23.308594 -27.71875 26.066406 -28.214844 28.875 -28.765625 C 29.042969 -28.765625 29.152344 -28.875 29.261719 -28.988281 C 29.539062 -29.042969 29.867188 -29.152344 30.089844 -29.316406 C 30.96875 -29.921875 31.191406 -30.914062 31.246094 -31.90625 C 31.355469 -32.074219 31.410156 -32.238281 31.464844 -32.457031 Z M 7 -28.214844 C 5.675781 -28.269531 4.242188 -28.65625 3.363281 -29.484375 C 5.511719 -28.820312 7.714844 -28.433594 9.917969 -28.214844 C 8.925781 -28.160156 7.933594 -28.160156 7 -28.214844 Z M 7 -28.214844 "/></g></g></g></svg>